<?xml version="1.0" encoding="UTF-8"?>
<svg xmlns="http://www.w3.org/2000/svg" xmlns:xlink="http://www.w3.org/1999/xlink" width="854" height="480" viewBox="0 0 854 480">
<defs>
<g>
<g id="glyph-0-0">
<path d="M 2.089844 -6.636719 L 6.109375 -3.253906 L 2.089844 0.136719 L 1.164062 -0.804688 L 4.117188 -3.242188 L 1.164062 -5.695312 Z "/>
</g>
<g id="glyph-0-1">
<path d="M 0 2.445312 L 0 1.296875 L 6.71875 1.296875 L 6.71875 2.445312 Z "/>
</g>
<g id="glyph-0-2">
<path d="M 2.015625 -6.195312 C 2.375 -6.195312 2.675781 -6.144531 2.921875 -6.039062 C 3.167969 -5.9375 3.363281 -5.792969 3.507812 -5.609375 C 3.65625 -5.789062 3.839844 -5.929688 4.054688 -6.035156 C 4.273438 -6.140625 4.519531 -6.195312 4.792969 -6.195312 C 5.117188 -6.195312 5.394531 -6.128906 5.621094 -6 C 5.847656 -5.871094 6.03125 -5.6875 6.175781 -5.453125 C 6.316406 -5.214844 6.417969 -4.929688 6.480469 -4.59375 C 6.546875 -4.257812 6.578125 -3.882812 6.578125 -3.472656 C 6.578125 -3.425781 6.574219 -3.367188 6.574219 -3.304688 C 6.570312 -3.238281 6.570312 -3.171875 6.566406 -3.101562 C 6.566406 -3.03125 6.5625 -2.960938 6.5625 -2.894531 C 6.558594 -2.828125 6.558594 -2.765625 6.554688 -2.714844 L 3.898438 -2.714844 C 3.898438 -2.4375 3.925781 -2.1875 3.976562 -1.964844 C 4.03125 -1.746094 4.105469 -1.558594 4.203125 -1.40625 C 4.300781 -1.253906 4.421875 -1.136719 4.5625 -1.054688 C 4.703125 -0.972656 4.863281 -0.929688 5.035156 -0.929688 C 5.230469 -0.929688 5.441406 -0.960938 5.667969 -1.019531 C 5.890625 -1.082031 6.117188 -1.160156 6.34375 -1.257812 L 6.34375 -0.148438 C 6.144531 -0.0703125 5.910156 -0.00390625 5.640625 0.0546875 C 5.371094 0.109375 5.085938 0.136719 4.792969 0.136719 C 4.582031 0.136719 4.394531 0.117188 4.226562 0.0703125 C 4.0625 0.0273438 3.917969 -0.0351562 3.785156 -0.121094 C 3.65625 -0.203125 3.542969 -0.304688 3.445312 -0.421875 C 3.347656 -0.539062 3.265625 -0.671875 3.191406 -0.816406 C 2.953125 -0.484375 2.714844 -0.242188 2.476562 -0.0898438 C 2.238281 0.0625 1.96875 0.136719 1.664062 0.136719 C 1.175781 0.136719 0.792969 -0.0117188 0.519531 -0.304688 C 0.246094 -0.597656 0.109375 -1.050781 0.109375 -1.664062 C 0.109375 -1.964844 0.148438 -2.234375 0.234375 -2.476562 C 0.316406 -2.71875 0.445312 -2.925781 0.621094 -3.09375 C 0.796875 -3.261719 1.023438 -3.394531 1.296875 -3.488281 C 1.574219 -3.582031 1.90625 -3.628906 2.296875 -3.628906 L 2.773438 -3.628906 L 2.773438 -4.070312 C 2.773438 -4.21875 2.761719 -4.355469 2.738281 -4.488281 C 2.710938 -4.621094 2.664062 -4.734375 2.597656 -4.832031 C 2.535156 -4.929688 2.445312 -5.003906 2.332031 -5.0625 C 2.222656 -5.117188 2.078125 -5.144531 1.902344 -5.144531 C 1.8125 -5.144531 1.707031 -5.132812 1.59375 -5.109375 C 1.476562 -5.085938 1.359375 -5.050781 1.230469 -5.007812 C 1.105469 -4.964844 0.980469 -4.910156 0.851562 -4.847656 C 0.722656 -4.789062 0.597656 -4.71875 0.476562 -4.644531 L 0.476562 -5.808594 C 0.691406 -5.929688 0.933594 -6.027344 1.207031 -6.09375 C 1.476562 -6.160156 1.746094 -6.195312 2.015625 -6.195312 M 2.226562 -2.714844 C 2.066406 -2.714844 1.933594 -2.691406 1.824219 -2.636719 C 1.714844 -2.585938 1.625 -2.515625 1.558594 -2.425781 C 1.488281 -2.335938 1.441406 -2.234375 1.410156 -2.117188 C 1.382812 -2 1.367188 -1.871094 1.367188 -1.738281 C 1.367188 -1.476562 1.410156 -1.277344 1.496094 -1.140625 C 1.585938 -1 1.722656 -0.929688 1.902344 -0.929688 C 2.042969 -0.929688 2.183594 -1.003906 2.332031 -1.144531 C 2.476562 -1.289062 2.625 -1.484375 2.773438 -1.738281 L 2.773438 -2.714844 L 2.226562 -2.714844 M 4.703125 -5.144531 C 4.453125 -5.144531 4.265625 -5.011719 4.140625 -4.75 C 4.019531 -4.488281 3.941406 -4.113281 3.910156 -3.628906 L 5.414062 -3.628906 C 5.417969 -4.144531 5.355469 -4.527344 5.226562 -4.773438 C 5.097656 -5.019531 4.921875 -5.144531 4.703125 -5.144531 Z "/>
</g>
<g id="glyph-0-3">
<path d="M 3.359375 -6.125 C 3.511719 -6.125 3.652344 -6.09375 3.785156 -6.039062 C 3.914062 -5.984375 4.027344 -5.90625 4.125 -5.808594 C 4.21875 -5.710938 4.296875 -5.597656 4.351562 -5.464844 C 4.40625 -5.335938 4.433594 -5.195312 4.433594 -5.050781 C 4.433594 -4.898438 4.40625 -4.757812 4.351562 -4.625 C 4.296875 -4.492188 4.21875 -4.378906 4.125 -4.285156 C 4.027344 -4.191406 3.914062 -4.113281 3.785156 -4.058594 C 3.652344 -4.003906 3.511719 -3.976562 3.359375 -3.976562 C 3.207031 -3.976562 3.070312 -4.003906 2.9375 -4.058594 C 2.808594 -4.113281 2.695312 -4.191406 2.597656 -4.285156 C 2.5 -4.378906 2.425781 -4.492188 2.371094 -4.625 C 2.3125 -4.757812 2.285156 -4.898438 2.285156 -5.050781 C 2.285156 -5.195312 2.3125 -5.335938 2.371094 -5.464844 C 2.425781 -5.597656 2.5 -5.710938 2.597656 -5.808594 C 2.695312 -5.90625 2.808594 -5.984375 2.9375 -6.039062 C 3.070312 -6.09375 3.207031 -6.125 3.359375 -6.125 M 3.359375 -2.011719 C 3.511719 -2.011719 3.652344 -1.984375 3.785156 -1.925781 C 3.914062 -1.871094 4.027344 -1.796875 4.125 -1.699219 C 4.21875 -1.605469 4.296875 -1.492188 4.351562 -1.359375 C 4.40625 -1.230469 4.433594 -1.089844 4.433594 -0.941406 C 4.433594 -0.792969 4.40625 -0.652344 4.351562 -0.519531 C 4.296875 -0.386719 4.21875 -0.273438 4.125 -0.175781 C 4.027344 -0.078125 3.914062 -0.00390625 3.785156 0.0546875 C 3.652344 0.109375 3.511719 0.136719 3.359375 0.136719 C 3.207031 0.136719 3.070312 0.109375 2.9375 0.0546875 C 2.808594 -0.00390625 2.695312 -0.078125 2.597656 -0.175781 C 2.5 -0.273438 2.425781 -0.386719 2.371094 -0.519531 C 2.3125 -0.652344 2.285156 -0.792969 2.285156 -0.941406 C 2.285156 -1.089844 2.3125 -1.230469 2.371094 -1.359375 C 2.425781 -1.492188 2.5 -1.605469 2.597656 -1.699219 C 2.695312 -1.796875 2.808594 -1.871094 2.9375 -1.925781 C 3.070312 -1.984375 3.207031 -2.011719 3.359375 -2.011719 Z "/>
</g>
</g>
</defs>
<g fill="rgb(83.137255%, 68.627451%, 21.568627%)" fill-opacity="1">
<use xlink:href="#glyph-0-0" x="30" y="29.077148"/>
<use xlink:href="#glyph-0-1" x="37" y="29.077148"/>
<use xlink:href="#glyph-0-2" x="44" y="29.077148"/>
<use xlink:href="#glyph-0-3" x="51" y="29.077148"/>
</g>
</svg>
